<svg height="2344" viewBox="0 0 510.8 478.9" width="2500" xmlns="http://www.w3.org/2000/svg" xmlns:xlink="http://www.w3.org/1999/xlink"><linearGradient id="a" gradientTransform="matrix(3.3001 0 0 -3.3001 27.323 2099.434)" gradientUnits="userSpaceOnUse" x1="59.931" x2="194.216" y1="500.814" y2="369.743"><stop offset="0" stop-color="#a875cf"/><stop offset="1" stop-color="#18bbfe"/></linearGradient><linearGradient id="b" gradientTransform="matrix(3.3001 0 0 -3.3001 27.323 2099.434)" gradientUnits="userSpaceOnUse" x1="68.212" x2="105.593" y1="473.109" y2="439.217"><stop offset="0" stop-opacity=".1"/><stop offset="1" stop-color="#fff" stop-opacity="0"/></linearGradient><g transform="matrix(4.1251 0 0 4.1251 -882.488 -1920.454)"><path d="m267.7 578.1-4.7-9.4-48.9-98.8s-1.1-3.3 1.1-3.8c7.2-.2 13.8-.2 20.4-.3 0 0 .8 0 1.4 1.5s39.3 78.8 39.3 78.8 8.6 8 15.4-.1c5.4-10.6 25.8-51.5 39.7-79.5 0 0 2.6-1.5 4.8-.6s1.2 2.7 1.2 2.7l-54 108.5c.1 0-6.4 9.6-15.7 1z" fill="url(#a)"/><path d="m215 471.3 34.6 42 15.1 58.5z" fill="#1f231c" fill-opacity=".054983"/><path d="m239.2 471.6 10.3 41.7 25 29z" fill="#15191c" fill-opacity=".054983"/><path d="m264.4 571.2-14.9-57.9 25 28.9 3.3 13.7z" fill="url(#b)"/></g></svg>